<?xml version="1.0" encoding="utf-8"?>
<!-- Generator: Adobe Illustrator 26.0.1, SVG Export Plug-In . SVG Version: 6.00 Build 0)  -->
<svg version="1.1" id="Layer_1" xmlns="http://www.w3.org/2000/svg" xmlns:xlink="http://www.w3.org/1999/xlink" x="0px" y="0px"
	 viewBox="0 0 283.5 283.5" style="enable-background:new 0 0 283.5 283.5;" xml:space="preserve">
<style type="text/css">
	.st0{fill:#000018;}
	.st1{fill:#FFFFFF;}
</style>
<rect y="0" class="st0" width="283.5" height="283.5"/>
<g>
	<polygon class="st1" points="137.5,133.1 134.3,133.1 134.3,150.3 145,150.3 145,147.2 137.5,147.2 	"/>
	<rect x="151.4" y="133.1" class="st1" width="3.2" height="17.2"/>
	<path class="st1" d="M173.2,140.6c1.4-2.4,0.5-5.5-1.9-6.9c-0.8-0.4-1.6-0.7-2.5-0.7h-8v17.2h10.4c2.8-0.2,5-2.6,4.8-5.4
		C176,143.1,174.9,141.5,173.2,140.6L173.2,140.6z M170.9,147.2h-6.7v-11h4.6c1.1-0.1,2,0.7,2.1,1.8c0.1,1.1-0.7,2-1.8,2.1
		c-0.1,0-0.2,0-0.3,0h-4l3.1,3.1h3c1.1,0,2,0.9,2,2S171.9,147.2,170.9,147.2L170.9,147.2z"/>
	<polygon class="st1" points="190.2,136.2 193.3,133.1 181.7,133.1 181.7,150.3 193.3,150.3 190.2,147.2 185,147.2 185,142.9 
		191.4,142.9 191.4,139.8 185,139.8 185,136.2 	"/>
	<path class="st1" d="M213.3,138.2c0-2.8-2.2-5-5-5c0,0,0,0-0.1,0h-9.1v17.2h3.2v-14.2h5.8c1.1-0.1,2,0.7,2.1,1.8
		c0.1,1.1-0.7,2-1.8,2.1c-0.1,0-0.2,0-0.3,0h-5.1l6.6,10.2h3.9l-4.6-7.2C211.4,142.8,213.3,140.7,213.3,138.2z"/>
	<polygon class="st1" points="217.9,136.2 225.8,136.2 224,137.4 224,150.3 227.2,150.3 227.2,136.2 233.3,136.2 233.3,133.1 
		217.9,133.1 	"/>
	<polygon class="st1" points="251.6,133.1 246.5,141.7 241.4,133.1 237.9,133.1 244.9,145.1 244.9,150.3 248.1,150.3 248.1,145.1 
		255.1,133.1 	"/>
	<path class="st1" d="M42.9,149.1L42.9,149.1c6.3-2.1,12.9-3.4,19.5-3.9l10.3-10.3L83,145.1c6.6,0.5,13.2,1.9,19.6,3.9l0,0
		l14.5-18.5L85,144.5l8.6-6.6v-25.7l-16.7,25.1l2.2-8.5l-6.4-38.8l-6.4,38.8l2.2,8.5l-16.7-25.1v25.7l8.6,6.6l-32.1-13.9L42.9,149.1
		z"/>
	<path class="st1" d="M106.7,155.8c-6.5-3.4-15.5-5.8-25.8-6.6l-8.2,8.2l-8.2-8.2c-10.3,0.9-19.3,3.2-25.8,6.6
		c18.5,4.2,32.5,19.2,33.8,37.6h0.4C74.2,175.1,88.2,160,106.7,155.8z"/>
</g>
</svg>
